<svg width="24" height="24" viewBox="0 0 24 24" fill="none" xmlns="http://www.w3.org/2000/svg">
<g id="icon">
<path id="Vector" d="M9.55556 16.4444V14.6667M12.2222 16.4444V12.8889M14.8889 16.4444V11.1111M16.6667 20H7.77778C7.30628 20 6.8541 19.8127 6.5207 19.4793C6.1873 19.1459 6 18.6937 6 18.2222V5.77778C6 5.30628 6.1873 4.8541 6.5207 4.5207C6.8541 4.1873 7.30628 4 7.77778 4H12.7431C12.9788 4.00005 13.2049 4.09373 13.3716 4.26044L18.184 9.07289C18.3507 9.23955 18.4444 9.4656 18.4444 9.70133V18.2222C18.4444 18.6937 18.2571 19.1459 17.9237 19.4793C17.5903 19.8127 17.1382 20 16.6667 20Z" stroke="#787878" stroke-width="2" stroke-linecap="round" stroke-linejoin="round"/>
</g>
</svg>
